HIERARCHY
ROOT Hips
{
	OFFSET 52.814400 -11.735116 100.706001
	CHANNELS 6 Xposition Yposition Zposition Xrotation Yrotation Zrotation
	JOINT spine
	{
		OFFSET 0.000000 -0.507026 8.817039
		CHANNELS 3 Xrotation Yrotation Zrotation
		JOINT spine1
		{
			OFFSET 0.000000 -0.000002 10.776596
			CHANNELS 3 Xrotation Yrotation Zrotation
			JOINT spine2
			{
				OFFSET 0.000000 -0.000001 10.325897
				CHANNELS 3 Xrotation Yrotation Zrotation
				JOINT Neck
				{
					OFFSET 0.000000 -1.263955 26.511002
					CHANNELS 3 Xrotation Yrotation Zrotation
					JOINT Head
					{
						OFFSET 0.000000 -0.000001 8.009659
						CHANNELS 3 Xrotation Yrotation Zrotation
						End Site
						{
							OFFSET 0.000000 6.393857 19.387894
						}
					}
				}
				JOINT RightShoulder
				{
					OFFSET -4.347950 0.605420 11.151199
					CHANNELS 3 Xrotation Yrotation Zrotation
					JOINT RightArm
					{
						OFFSET 0.000000 -0.000003 14.625793
						CHANNELS 3 Xrotation Yrotation Zrotation
						JOINT RightArmRoll
						{
							OFFSET 0.000000 -0.000001 7.383392
							CHANNELS 3 Xrotation Yrotation Zrotation
							JOINT RightForeArm
							{
								OFFSET 0.000000 -0.000004 21.505203
								CHANNELS 3 Xrotation Yrotation Zrotation
								JOINT RightForeArmRoll
								{
									OFFSET 0.000000 -0.000001 8.285324
									CHANNELS 3 Xrotation Yrotation Zrotation
									JOINT RightHand
									{
										OFFSET 0.000000 -0.000003 16.626801
										CHANNELS 3 Xrotation Yrotation Zrotation
										End Site
										{
											OFFSET 0.000000 0.000000 0.100006
										}
									}
								}
							}
						}
					}
				}
				JOINT LeftShoulder
				{
					OFFSET 4.347950 0.605420 11.151199
					CHANNELS 3 Xrotation Yrotation Zrotation
					JOINT LeftArm
					{
						OFFSET 0.000000 -0.000003 14.625793
						CHANNELS 3 Xrotation Yrotation Zrotation
						JOINT LeftArmRoll
						{
							OFFSET 0.000000 -0.000001 7.383392
							CHANNELS 3 Xrotation Yrotation Zrotation
							JOINT LeftForeArm
							{
								OFFSET 0.000000 -0.000004 21.505203
								CHANNELS 3 Xrotation Yrotation Zrotation
								JOINT LeftForeArmRoll
								{
									OFFSET 0.000000 -0.000001 8.285324
									CHANNELS 3 Xrotation Yrotation Zrotation
									JOINT LeftHand
									{
										OFFSET 0.000000 -0.000003 16.626801
										CHANNELS 3 Xrotation Yrotation Zrotation
										End Site
										{
											OFFSET 0.000000 0.000000 0.100006
										}
									}
								}
							}
						}
					}
				}
			}
		}
	}
	JOINT RightUpLeg
	{
		OFFSET -7.815102 1.202170 -1.433090
		CHANNELS 3 Xrotation Yrotation Zrotation
		JOINT RightUpLegRoll
		{
			OFFSET 0.000000 -0.000003 19.495903
			CHANNELS 3 Xrotation Yrotation Zrotation
			JOINT RightLeg
			{
				OFFSET 0.000000 0.000004 -24.142700
				CHANNELS 3 Xrotation Yrotation Zrotation
				JOINT RightLegRoll
				{
					OFFSET 0.000000 -0.000004 24.221703
					CHANNELS 3 Xrotation Yrotation Zrotation
					JOINT RightFoot
					{
						OFFSET 0.000000 -0.000004 20.160500
						CHANNELS 3 Xrotation Yrotation Zrotation
						JOINT RightToeBase
						{
							OFFSET 0.000000 -0.000003 16.853195
							CHANNELS 3 Xrotation Yrotation Zrotation
							End Site
							{
								OFFSET 0.007145 0.940779 8.161865
							}
						}
					}
				}
			}
		}
	}
	JOINT LeftUpLeg
	{
		OFFSET 7.815102 1.202170 -1.433090
		CHANNELS 3 Xrotation Yrotation Zrotation
		JOINT LeftUpLegRoll
		{
			OFFSET 0.000000 -0.000003 19.496002
			CHANNELS 3 Xrotation Yrotation Zrotation
			JOINT LeftLeg
			{
				OFFSET 0.000000 -0.000004 24.142601
				CHANNELS 3 Xrotation Yrotation Zrotation
				JOINT LeftLegRoll
				{
					OFFSET 0.000000 -0.000005 24.445602
					CHANNELS 3 Xrotation Yrotation Zrotation
					JOINT LeftFoot
					{
						OFFSET 0.000000 -0.000003 19.936600
						CHANNELS 3 Xrotation Yrotation Zrotation
						JOINT LeftToeBase
						{
							OFFSET 0.000000 -0.000003 16.853195
							CHANNELS 3 Xrotation Yrotation Zrotation
							End Site
							{
								OFFSET -0.032013 0.940779 8.161865
							}
						}
					}
				}
			}
		}
	}
}
MOTION
Frames: 12
Frame Time: 0.041667
53.155396 -12.442813 100.604996 2.682052 -0.000434 -0.107822 -2.937778 -0.129851 -0.126553 -1.866430 -0.263527 -0.248861 -0.221352 -0.266499 -0.248240 9.889065 1.254801 1.932468 4.865450 10.212749 0.359105 -13.513094 -16.995514 -13.862562 -146.771954 -160.751207 -95.850107 0.000001 -0.000000 0.000000 9.124903 7.554848 0.011176 0.000005 0.000006 -3.004453 -5.000206 -7.998820 0.000162 -17.265450 25.989857 19.943657 -149.052705 166.807918 112.913006 -0.000001 0.000021 0.000007 12.053074 -0.504178 0.946151 0.000000 -0.000005 3.004273 -5.000210 7.998772 -0.000147 -4.142074 -178.056092 -1.137207 -179.999991 0.000006 -0.989006 174.488753 -1.161608 -0.407077 -0.000002 0.000002 0.041727 68.713117 6.901498 2.137515 25.456967 -7.355617 0.000001 -3.159948 177.673533 2.913263 -0.000005 -0.000004 -1.007050 -6.396318 2.377277 0.393136 -0.000002 0.000000 -0.090706 69.552486 -6.882310 -2.117118 25.456952 7.355613 -0.000010 
53.164093 -12.447213 100.606003 2.693749 -0.006563 -0.118136 -2.941198 -0.127090 -0.126938 -1.872969 -0.258390 -0.249084 -0.227891 -0.261365 -0.248640 9.906870 1.269973 1.936097 4.850237 10.217459 0.362968 -13.522462 -16.798113 -13.863080 -146.817348 -160.896840 -95.804714 -0.000001 -0.000000 -0.000001 9.391480 7.561058 0.006652 0.000004 0.000007 -3.004452 -5.000213 -7.998823 0.000162 -17.291394 25.884662 19.979879 -149.077389 167.079459 112.670432 0.000003 0.000020 0.000008 12.238156 -0.673597 0.963438 0.000004 -0.000007 3.004272 -5.000209 7.998774 -0.000148 -4.159466 -178.047145 -1.132544 -179.999991 0.000006 -0.987996 174.481567 -1.166570 -0.406693 -0.000002 0.000002 0.041869 68.713636 6.901459 2.137873 25.456967 -7.355617 0.000001 -3.167365 177.681538 2.919112 -0.000005 -0.000004 -1.006960 -6.393942 2.376612 0.392991 -0.000002 0.000000 -0.090591 69.551407 -6.882264 -2.117074 25.456953 7.355614 -0.000010 
53.164795 -12.439816 100.603981 2.704300 -0.012077 -0.127484 -2.944387 -0.124344 -0.127075 -1.879058 -0.253159 -0.248970 -0.233981 -0.256134 -0.248664 9.926748 1.284031 1.938453 4.833783 10.219895 0.366084 -13.533306 -16.603287 -13.866118 -146.860064 -161.043662 -95.753481 -0.000002 -0.000000 -0.000003 9.662795 7.568401 0.002288 0.000005 0.000008 -3.004461 -5.000211 -7.998822 0.000162 -17.315645 25.779308 20.013561 -149.094410 167.343965 112.429654 0.000004 0.000022 0.000004 12.426247 -0.836849 0.979419 0.000001 -0.000008 3.004265 -5.000209 7.998773 -0.000148 -4.174814 -178.039208 -1.128568 -179.999991 0.000006 -0.987995 174.475229 -1.170541 -0.407207 -0.000002 0.000002 0.042014 68.714367 6.901433 2.138224 25.456969 -7.355617 0.000002 -3.173792 177.689557 2.924169 -0.000005 -0.000004 -1.006860 -6.391608 2.376006 0.392861 -0.000002 0.000000 -0.090482 69.550321 -6.882187 -2.117230 25.456950 7.355613 -0.000010 
53.162697 -12.446613 100.598991 2.713449 -0.016874 -0.135822 -2.947267 -0.121616 -0.126921 -1.884588 -0.247826 -0.248459 -0.239514 -0.250795 -0.248242 9.948704 1.296641 1.939425 4.816061 10.220057 0.368336 -13.546172 -16.411479 -13.872278 -146.899815 -161.192751 -95.695841 0.000003 0.000000 -0.000002 9.938539 7.577067 -0.001889 0.000005 0.000008 -3.004461 -5.000212 -7.998821 0.000164 -17.337955 25.672863 20.044013 -149.101759 167.600329 112.193097 -0.000002 0.000020 0.000002 12.616821 -0.991407 0.993531 0.000002 -0.000010 3.004272 -5.000207 7.998772 -0.000147 -4.187788 -178.033266 -1.125295 -179.999991 0.000006 -0.987995 174.469915 -1.174515 -0.407701 -0.000001 0.000002 0.042163 68.715207 6.901417 2.138469 25.456971 -7.355617 0.000001 -3.178972 177.696537 2.928390 -0.000005 -0.000004 -1.006770 -6.389314 2.375460 0.392750 -0.000002 0.000000 -0.090380 69.549153 -6.882174 -2.117199 25.456953 7.355613 -0.000011 
53.162094 -12.445916 100.601997 2.721713 -0.021077 -0.143142 -2.949986 -0.118907 -0.126518 -1.889827 -0.242373 -0.247625 -0.244749 -0.245333 -0.247448 9.973168 1.308855 1.938967 4.796555 10.216559 0.369890 -13.561104 -16.219095 -13.881897 -146.935210 -161.339313 -95.631890 0.000001 -0.000001 -0.000002 10.219720 7.587057 -0.006180 0.000006 0.000009 -3.004462 -5.000209 -7.998823 0.000162 -17.358753 25.565941 20.072335 -149.102005 167.849508 111.954362 -0.000004 0.000020 0.000004 12.810500 -1.143574 1.007153 0.000001 -0.000006 3.004272 -5.000207 7.998771 -0.000147 -4.199089 -178.027296 -1.122907 -179.999991 0.000006 -0.987995 174.465298 -1.176490 -0.406991 -0.000001 0.000002 0.042325 68.716259 6.901412 2.138600 25.456969 -7.355617 0.000001 -3.183503 177.701551 2.931925 -0.000005 -0.000004 -1.006680 -6.387108 2.374983 0.392655 -0.000002 0.000000 -0.090283 69.547868 -6.882123 -2.117270 25.456853 7.355621 0.000052 
53.155491 -12.450213 100.598991 2.729690 -0.024899 -0.149483 -2.952692 -0.116212 -0.125943 -1.895077 -0.236802 -0.246600 -0.249998 -0.239749 -0.246416 10.000488 1.321795 1.937153 4.774860 10.208302 0.370994 -13.578101 -16.023006 -13.894807 -146.965945 -161.478745 -95.562795 -0.000001 -0.000002 -0.000002 10.507390 7.598130 -0.010796 0.000005 0.000007 -3.004463 -5.000208 -7.998823 0.000163 -17.378556 25.459658 20.099360 -149.099109 168.093428 111.706432 0.000001 0.000021 0.000003 13.008915 -1.300945 1.022024 0.000002 -0.000007 3.004274 -5.000212 7.998771 -0.000152 -4.209612 -178.023335 -1.121185 -179.999991 0.000006 -0.987996 174.461036 -1.178467 -0.407271 -0.000001 0.000002 0.042511 68.717529 6.901420 2.138823 25.456967 -7.355617 0.000001 -3.188093 177.706550 2.934852 -0.000005 -0.000004 -1.006590 -6.385055 2.374606 0.392575 -0.000002 0.000000 -0.090188 69.546489 -6.882100 -2.117352 25.456752 7.355618 0.000180 
53.161297 -12.452114 100.596992 2.737382 -0.028366 -0.154880 -2.955385 -0.113530 -0.125214 -1.900315 -0.231124 -0.245399 -0.255238 -0.234057 -0.245166 10.030453 1.335262 1.934098 4.751194 10.195587 0.371676 -13.596719 -15.824507 -13.910257 -146.992925 -161.612098 -95.488722 0.000001 -0.000001 0.000001 10.801365 7.610149 -0.015685 0.000006 0.000009 -3.004472 -5.000212 -7.998823 0.000162 -17.397305 25.354398 20.124994 -149.093604 168.332703 111.450259 0.000001 0.000020 0.000002 13.212186 -1.462843 1.038060 -0.000000 -0.000006 3.004274 -5.000213 7.998777 -0.000150 -4.219337 -178.020370 -1.120121 -179.999991 0.000006 -0.987995 174.457143 -1.180458 -0.407545 -0.000001 0.000002 0.042717 68.719107 6.901413 2.138923 25.456967 -7.355618 0.000001 -3.192700 177.710553 2.937253 -0.000005 -0.000004 -1.006490 -6.383143 2.374336 0.392507 -0.000002 0.000000 -0.090092 69.545095 -6.882043 -2.117327 25.456649 7.355623 0.000353 
53.157593 -12.455214 100.594994 2.744720 -0.031500 -0.159369 -2.958036 -0.110856 -0.124346 -1.905525 -0.225354 -0.244037 -0.260447 -0.228271 -0.243720 10.062920 1.349100 1.929903 4.725770 10.179306 0.371919 -13.616746 -15.624900 -13.927970 -147.017022 -161.740655 -95.410428 0.000003 0.000001 -0.000002 11.101544 7.622997 -0.020797 0.000004 0.000006 -3.004473 -5.000210 -7.998823 0.000164 -17.415072 25.250651 20.149401 -149.085995 168.567976 111.186580 -0.000003 0.000021 0.000000 13.420421 -1.628607 1.055167 0.000003 -0.000007 3.004272 -5.000207 7.998775 -0.000150 -4.228232 -178.017406 -1.119710 -179.999991 0.000006 -0.987995 174.453700 -1.180451 -0.407616 -0.000001 0.000002 0.042937 68.720794 6.901414 2.138917 25.456967 -7.355616 0.000001 -3.197267 177.714569 2.939122 -0.000005 -0.000004 -1.006400 -6.381351 2.374166 0.392451 -0.000002 0.000000 -0.089998 69.543593 -6.881982 -2.117409 25.456552 7.355620 0.000570 
53.161194 -12.450213 100.593994 2.751699 -0.034327 -0.162985 -2.960647 -0.108189 -0.123352 -1.910674 -0.219504 -0.242527 -0.265601 -0.222403 -0.242098 10.097788 1.363111 1.924682 4.698821 10.159856 0.371747 -13.637738 -15.425467 -13.947307 -147.039247 -161.865552 -95.328144 0.000003 -0.000001 -0.000001 11.407815 7.636523 -0.026079 0.000006 0.000009 -3.004469 -5.000212 -7.998823 0.000162 -17.431666 25.148606 20.172258 -149.076788 168.799601 110.916344 -0.000001 0.000021 0.000005 13.633942 -1.797574 1.073261 -0.000001 -0.000005 3.004272 -5.000209 7.998774 -0.000150 -4.236243 -178.015439 -1.119797 -179.999991 0.000006 -0.987995 174.450681 -1.181438 -0.407774 -0.000002 0.000002 0.043169 68.722679 6.901393 2.138997 25.456967 -7.355617 0.000001 -3.201734 177.717561 2.940544 -0.000005 -0.000004 -1.006300 -6.379689 2.374094 0.392406 -0.000002 0.000000 -0.089905 69.541995 -6.881952 -2.117503 25.456354 7.355624 0.000829 
53.160091 -12.454018 100.591995 2.758289 -0.036873 -0.165766 -2.963194 -0.105527 -0.122251 -1.915753 -0.213589 -0.240885 -0.270678 -0.216468 -0.240322 10.134659 1.377130 1.918531 4.670564 10.137826 0.371144 -13.659262 -15.227425 -13.967616 -147.060543 -161.987990 -95.242569 0.000001 0.000000 -0.000001 11.719889 7.650619 -0.031440 0.000007 0.000009 -3.004470 -5.000212 -7.998823 0.000162 -17.447278 25.048757 20.193596 -149.066502 169.028317 110.640404 -0.000004 0.000021 0.000003 13.852847 -1.969088 1.092227 -0.000000 -0.000010 3.004268 -5.000211 7.998776 -0.000146 -4.243347 -178.014455 -1.120304 -179.999991 0.000006 -0.986998 174.448195 -1.180440 -0.407730 -0.000002 0.000002 0.043407 68.724592 6.901405 2.139080 25.456969 -7.355617 0.000001 -3.206049 177.720566 2.941517 -0.000005 -0.000004 -1.006210 -6.378128 2.374121 0.392369 -0.000002 0.000000 -0.089813 69.540301 -6.881952 -2.117509 25.456243 7.355609 0.001082 
53.159096 -12.461613 100.592995 2.764450 -0.039161 -0.167745 -2.965695 -0.102866 -0.121054 -1.920733 -0.207619 -0.239127 -0.275656 -0.210479 -0.238411 10.173531 1.390960 1.911567 4.641227 10.113816 0.370141 -13.681084 -15.032039 -13.988435 -147.081744 -162.108953 -95.153858 0.000001 0.000000 -0.000001 12.037655 7.665149 -0.036809 0.000004 0.000007 -3.004479 -5.000208 -7.998822 0.000163 -17.461732 24.951489 20.213455 -149.055532 169.254601 110.359663 -0.000001 0.000020 -0.000001 14.077345 -2.142501 1.111960 0.000000 -0.000007 3.004271 -5.000213 7.998773 -0.000149 -4.249514 -178.013472 -1.121225 -179.999991 0.000006 -0.986998 174.446187 -1.180436 -0.408768 -0.000001 0.000002 0.043649 68.726682 6.901359 2.139142 25.456965 -7.355617 0.000001 -3.210168 177.722574 2.942129 -0.000005 -0.000004 -1.006120 -6.376668 2.374236 0.392338 -0.000002 0.000000 -0.089721 69.538689 -6.881887 -2.117497 25.456045 7.355614 0.001332 
53.157295 -12.463314 100.591988 2.770150 -0.041218 -0.168960 -2.968104 -0.100204 -0.119781 -1.925592 -0.201611 -0.237266 -0.280510 -0.204449 -0.236387 10.214201 1.404443 1.903899 4.611015 10.088421 0.368715 -13.702860 -14.840510 -14.009346 -147.103888 -162.229806 -95.062750 -0.000000 0.000001 -0.000002 12.360904 7.679984 -0.042134 0.000006 0.000006 -3.004483 -5.000209 -7.998824 0.000163 -17.475080 24.857092 20.231850 -149.044358 169.479014 110.074953 0.000001 0.000022 0.000003 14.307652 -2.317133 1.132348 -0.000001 -0.000007 3.004269 -5.000212 7.998775 -0.000150 -4.254718 -178.013485 -1.122407 -179.999991 0.000006 -0.986998 174.444807 -1.179441 -0.408700 -0.000001 0.000002 0.043890 68.728779 6.901348 2.139108 25.456971 -7.355617 0.000001 -3.214037 177.724582 2.942371 -0.000005 -0.000004 -1.006020 -6.375287 2.374451 0.392313 -0.000002 0.000000 -0.089631 69.536988 -6.881851 -2.117597 25.455948 7.355613 0.001539 
